<?xml version="1.0" encoding="utf-8"?>
<!-- Generator: Adobe Illustrator 16.0.0, SVG Export Plug-In . SVG Version: 6.00 Build 0)  -->
<!DOCTYPE svg PUBLIC "-//W3C//DTD SVG 1.1//EN" "http://www.w3.org/Graphics/SVG/1.1/DTD/svg11.dtd">
<svg version="1.1" id="Layer_1" xmlns="http://www.w3.org/2000/svg" xmlns:xlink="http://www.w3.org/1999/xlink" x="0px" y="0px"
	 width="128px" height="128px" viewBox="0 0 128 128" enable-background="new 0 0 128 128" xml:space="preserve">
<path id="XMLID_29_" fill="#B482DE" d="M67.679,85.699c-6.579-0.901-12.926-6.211-16.753-13.178
	c-3.828-6.967-5.246-15.379-4.576-23.097c0.469-5.415,1.905-10.505,2.534-15.874c0.625-5.369,0.343-11.344-2.295-16.264
	c-2.637-4.92-6.066-7.743-12.089-5.785c9.095-5.525,22.878,1.605,30.628,12.264c7.748,10.658,10.01,26.296,5.457,37.71
	c-1.501,3.765-3.665,7.091-4.732,11.115C64.783,76.616,64.874,82.465,67.679,85.699"/>
<path id="XMLID_40_" fill="#B482DE" d="M50.692,78.428c-1.548-2.368-2.409-4.486-3.646-7.018c-3.371-6.89-8.628-11.82-15.932-14.719
	c-7.304-2.898-16.039-3.315-23.459-0.706c5.803,1.341,10.32,5.703,13.935,10.284c3.616,4.581,6.727,9.63,11.267,13.367
	c6.827,5.621,16.062,8.315,24.662,5.836C54.25,83.653,52.157,80.667,50.692,78.428z"/>
<g id="XMLID_39_">
	<path fill="#C5CBF9" d="M80.168,27.035c0,0,0.498-0.034,1.432-0.099c0.466-0.033,1.041-0.05,1.727-0.058
		c0.687-0.025,1.475-0.021,2.354,0.027c1.758,0.088,3.921,0.219,6.372,0.71c2.453,0.466,5.214,1.233,8.097,2.525
		c1.452,0.624,2.912,1.418,4.37,2.347c1.471,0.913,2.902,2.022,4.277,3.285c2.771,2.501,5.229,5.754,6.978,9.504
		c1.772,3.741,2.825,7.956,3.133,12.23c0.049,0.536,0.05,1.07,0.076,1.607l0.014,0.403l0.004,0.101l0.001,0.194l-0.001,0.183
		l-0.004,0.733c0.017,0.91-0.064,2.13-0.138,3.243c-0.197,2.172-0.609,4.347-1.192,6.484c-1.169,4.274-3.253,8.353-6.012,11.765
		c-2.73,3.443-6.131,6.194-9.703,8.188c-3.571,2.021-7.326,3.266-10.913,3.983c-3.602,0.679-7.044,0.836-10.165,0.61l-0.582-0.04
		l-0.315-0.021l-0.272-0.027c-0.367-0.038-0.73-0.076-1.09-0.113c-0.763-0.082-1.481-0.193-2.172-0.309
		c-1.387-0.244-2.686-0.518-3.89-0.837c-2.41-0.628-4.438-1.389-6.066-2.089c-1.632-0.69-2.84-1.387-3.647-1.868
		c-0.409-0.229-0.7-0.451-0.904-0.58c-0.201-0.134-0.305-0.204-0.305-0.204s0.481,0.129,1.382,0.371
		c0.891,0.252,2.231,0.503,3.911,0.794c1.683,0.285,3.749,0.474,6.09,0.599c1.175,0.04,2.417,0.078,3.721,0.048
		c0.655-0.02,1.318-0.045,1.971-0.082c0.349-0.023,0.702-0.047,1.059-0.071l0.273-0.02l0.232-0.029l0.522-0.062
		c2.798-0.307,5.766-0.919,8.744-1.902c2.967-1.007,5.954-2.38,8.691-4.248c2.753-1.839,5.246-4.162,7.263-6.879
		c2.004-2.724,3.573-5.812,4.503-9.151c0.957-3.315,1.355-6.879,1.259-10.373c-0.061-3.488-0.721-6.849-1.847-9.917
		c-0.579-1.528-1.264-2.99-2.064-4.356c-0.81-1.361-1.733-2.622-2.717-3.794c-1.983-2.334-4.275-4.251-6.599-5.78
		c-2.322-1.538-4.665-2.707-6.82-3.609c-2.158-0.9-4.123-1.57-5.77-2.044c-1.651-0.476-2.954-0.833-3.873-1.034
		C80.653,27.153,80.168,27.035,80.168,27.035z"/>
</g>
<path fill="#B482DE" d="M81.574,23.059c-3.799,0.004-6.876-3.073-6.876-6.868l0,0c-0.005-3.792,3.072-6.869,6.864-6.873l0,0
	c3.8-0.003,6.876,3.072,6.876,6.869l0,0l0,0l0,0c0.004,1.899-0.768,3.617-2.011,4.861l0,0
	C85.186,22.287,83.468,23.059,81.574,23.059z"/>
<text transform="matrix(1 0 0 1 17.8125 117.5781)"><tspan x="0" y="0" fill="#B482DE" font-family="'Helvetica-Bold'" font-size="20.3427">MER</tspan><tspan x="45.205" y="0" fill="#C5CBF9" font-family="'Helvetica-Bold'" font-size="20.3427">maid</tspan></text>
</svg>
